<?xml version="1.0" encoding="utf-8"?>
<!-- Generator: Adobe Illustrator 16.0.0, SVG Export Plug-In . SVG Version: 6.00 Build 0)  -->
<!DOCTYPE svg PUBLIC "-//W3C//DTD SVG 1.1//EN" "http://www.w3.org/Graphics/SVG/1.1/DTD/svg11.dtd">
<svg version="1.1" id="Layer_1" xmlns="http://www.w3.org/2000/svg" xmlns:xlink="http://www.w3.org/1999/xlink" x="0px" y="0px"
	 width="80px" height="80px" viewBox="0 0 80 80" enable-background="new 0 0 80 80" xml:space="preserve">
<polygon fill="#0259A8" stroke="#000000" stroke-miterlimit="10" points="77.725,28.423 67.617,38.905 59.137,29.908 59.137,79.456 
	19.869,79.456 19.869,29.908 11.382,40.445 1.077,29.392 19.869,4.798 59.67,4.798 "/>
<rect x="28.029" y="0.716" fill="#9E111A" width="22.743" height="4.082"/>
<polygon fill="#9E111A" stroke="#000000" stroke-miterlimit="10" points="11.011,41.261 0.919,29.884 3.289,26.461 13.38,37.838 "/>
<polygon fill="#9E111A" stroke="#000000" stroke-miterlimit="10" points="69.331,41.22 78.98,30.014 76.579,26.977 66.932,37.834 
	"/>
<rect x="35.351" y="5.313" fill="#9E111A" width="9.298" height="73.625"/>
<polygon fill="#9E111A" points="52.787,5.297 52.787,78.938 58.584,78.938 58.584,28.629 62.086,32.281 62.086,29.487 62.086,8.766 
	59.391,5.297 "/>
<polygon fill="#9E111A" points="26.775,5.297 26.775,78.938 20.376,78.938 20.376,28.525 17.477,32.129 17.477,8.766 20.172,5.297 
	"/>
</svg>
